<?xml version="1.0" encoding="UTF-8"?>
<!-- Generator: Adobe Illustrator 15.0.2, SVG Export Plug-In . SVG Version: 6.00 Build 0)  -->
<!DOCTYPE svg PUBLIC "-//W3C//DTD SVG 1.1//EN" "http://www.w3.org/Graphics/SVG/1.1/DTD/svg11.dtd">
<svg xmlns="http://www.w3.org/2000/svg" xmlns:xlink="http://www.w3.org/1999/xlink" version="1.1" id="Layer_1" x="0px" y="0px" width="512px" height="498.617px" viewBox="0 0 512 498.617" enable-background="new 0 0 512 498.617" xml:space="preserve">
<g>
	<path d="M453.699,236.629c-0.012-0.006-0.023-0.012-0.035-0.018L261.988,44.921h-0.006l0,0c-5.877-5.88-15.4-5.88-21.277,0   l-31.42,31.419l-67.18-67.179C136.71,3.529,129.167-0.006,120.772,0c-16.384-0.006-29.663,13.327-29.651,29.783   c0,8.517,3.602,16.147,9.307,21.575l66.923,66.935L4.408,281.227l0,0c-5.877,5.875-5.877,15.4,0,21.278l191.7,191.702   c5.877,5.88,15.406,5.88,21.277,0h0.006l236.309-236.303C459.568,252.03,459.568,242.501,453.699,236.629z M335.99,291.751H78.182   l173.251-173.254l128.904,128.91L335.99,291.751z" fill="#FFF"/>
	<path d="M501.348,391.081l-35.654-61.754c-0.187-0.35-0.374-0.7-0.596-1.026l-0.081-0.14l-0.023,0.011   c-1.809-2.496-4.714-4.13-8.073-4.13c-3.034,0-5.683,1.389-7.502,3.512l-0.094-0.046l-0.35,0.606   c-0.525,0.7-0.969,1.435-1.308,2.24l-34.85,60.365c-6.837,9.17-10.932,20.499-10.932,32.819c0,30.404,24.641,55.058,55.057,55.058   c30.429,0,55.058-24.653,55.058-55.058C512,411.382,508.021,400.193,501.348,391.081z" fill="#FFF"/>
</g>
</svg>
